<svg version="1.1" id="Layer_1" xmlns="http://www.w3.org/2000/svg" x="0" y="0" viewBox="0 0 256.12 129.88" style="enable-background:new 0 0 256.12 129.88" xml:space="preserve" width="256.12" height="129.88"><style>@keyframes animate-svg-stroke-1{0%{stroke-dashoffset:146.11965942382812px;stroke-dasharray:146.11965942382812px}}@keyframes animate-svg-fill-1{0%{fill:transparent}}@keyframes animate-svg-stroke-2{0%{stroke-dashoffset:111.43426513671875px;stroke-dasharray:111.43426513671875px}}@keyframes animate-svg-fill-2{0%{fill:transparent}}@keyframes animate-svg-stroke-3{0%{stroke-dashoffset:85.5430908203125px;stroke-dasharray:85.5430908203125px}}@keyframes animate-svg-fill-3{0%{fill:transparent}}@keyframes animate-svg-stroke-4{0%{stroke-dashoffset:63.289798736572266px;stroke-dasharray:63.289798736572266px}}@keyframes animate-svg-fill-4{0%{fill:transparent}}@keyframes animate-svg-stroke-5{0%{stroke-dashoffset:78.49169921875px;stroke-dasharray:78.49169921875px}}@keyframes animate-svg-fill-5{0%{fill:transparent}}@keyframes animate-svg-stroke-6{0%{stroke-dashoffset:54.8617057800293px;stroke-dasharray:54.8617057800293px}}@keyframes animate-svg-fill-6{0%{fill:transparent}}@keyframes animate-svg-stroke-7{0%{stroke-dashoffset:84.87489318847656px;stroke-dasharray:84.87489318847656px}}@keyframes animate-svg-fill-7{0%{fill:transparent}}@keyframes animate-svg-stroke-8{0%{stroke-dashoffset:75.7043228149414px;stroke-dasharray:75.7043228149414px}}@keyframes animate-svg-fill-8{0%{fill:transparent}}@keyframes animate-svg-stroke-9{0%{stroke-dashoffset:84.91320037841797px;stroke-dasharray:84.91320037841797px}}@keyframes animate-svg-fill-9{0%{fill:transparent}}@keyframes animate-svg-stroke-10{0%{stroke-dashoffset:86.71685791015625px;stroke-dasharray:86.71685791015625px}}@keyframes animate-svg-fill-10{0%{fill:transparent}}@keyframes animate-svg-stroke-11{0%{stroke-dashoffset:65.50059509277344px;stroke-dasharray:65.50059509277344px}}@keyframes animate-svg-fill-11{0%{fill:transparent}}@keyframes animate-svg-stroke-12{0%{stroke-dashoffset:81.1471176147461px;stroke-dasharray:81.1471176147461px}}@keyframes animate-svg-fill-12{0%{fill:transparent}}@keyframes animate-svg-stroke-13{0%{stroke-dashoffset:54.868900299072266px;stroke-dasharray:54.868900299072266px}}@keyframes animate-svg-fill-13{0%{fill:transparent}}@keyframes animate-svg-stroke-14{0%{stroke-dashoffset:89.3747787475586px;stroke-dasharray:89.3747787475586px}}@keyframes animate-svg-fill-14{0%{fill:transparent}}@keyframes animate-svg-stroke-15{0%{stroke-dashoffset:160.45359802246094px;stroke-dasharray:160.45359802246094px}}@keyframes animate-svg-fill-15{0%{fill:transparent}}@keyframes animate-svg-stroke-16{0%{stroke-dashoffset:96.81836700439453px;stroke-dasharray:96.81836700439453px}}@keyframes animate-svg-fill-16{0%{fill:transparent}}@keyframes animate-svg-stroke-17{0%{stroke-dashoffset:108.40538024902344px;stroke-dasharray:108.40538024902344px}}@keyframes animate-svg-fill-17{0%{fill:transparent}}@keyframes animate-svg-stroke-18{0%{stroke-dashoffset:52.47178649902344px;stroke-dasharray:52.47178649902344px}}@keyframes animate-svg-fill-18{0%{fill:transparent}}@keyframes animate-svg-stroke-19{0%{stroke-dashoffset:66.59992980957031px;stroke-dasharray:66.59992980957031px}}@keyframes animate-svg-fill-19{0%{fill:transparent}}@keyframes animate-svg-stroke-20{0%{stroke-dashoffset:52.511688232421875px;stroke-dasharray:52.511688232421875px}}@keyframes animate-svg-fill-20{0%{fill:transparent}}@keyframes animate-svg-stroke-21{0%{stroke-dashoffset:67.83648681640625px;stroke-dasharray:67.83648681640625px}}@keyframes animate-svg-fill-21{0%{fill:transparent}}@keyframes animate-svg-stroke-22{0%{stroke-dashoffset:98.92961120605469px;stroke-dasharray:98.92961120605469px}}@keyframes animate-svg-fill-22{0%{fill:transparent}}@keyframes animate-svg-stroke-23{0%{stroke-dashoffset:74.82687377929688px;stroke-dasharray:74.82687377929688px}}@keyframes animate-svg-fill-23{0%{fill:transparent}}@keyframes animate-svg-stroke-24{0%{stroke-dashoffset:73.72071838378906px;stroke-dasharray:73.72071838378906px}}@keyframes animate-svg-fill-24{0%{fill:transparent}}@keyframes animate-svg-stroke-25{0%{stroke-dashoffset:61.403770446777344px;stroke-dasharray:61.403770446777344px}}@keyframes animate-svg-fill-25{0%{fill:transparent}}@keyframes animate-svg-stroke-26{0%{stroke-dashoffset:49.20431137084961px;stroke-dasharray:49.20431137084961px}}@keyframes animate-svg-fill-26{0%{fill:transparent}}@keyframes animate-svg-stroke-27{0%{stroke-dashoffset:49.20431900024414px;stroke-dasharray:49.20431900024414px}}@keyframes animate-svg-fill-27{0%{fill:transparent}}@keyframes animate-svg-stroke-28{0%{stroke-dashoffset:61.40296936035156px;stroke-dasharray:61.40296936035156px}}@keyframes animate-svg-fill-28{0%{fill:transparent}}@keyframes animate-svg-stroke-29{0%{stroke-dashoffset:36.91770553588867px;stroke-dasharray:36.91770553588867px}}@keyframes animate-svg-fill-29{0%{fill:transparent}}@keyframes animate-svg-stroke-30{0%{stroke-dashoffset:41.774295806884766px;stroke-dasharray:41.774295806884766px}}@keyframes animate-svg-fill-30{0%{fill:transparent}}@keyframes animate-svg-stroke-31{0%{stroke-dashoffset:35.72602462768555px;stroke-dasharray:35.72602462768555px}}@keyframes animate-svg-fill-31{0%{fill:transparent}}@keyframes animate-svg-stroke-32{0%{stroke-dashoffset:72.5134048461914px;stroke-dasharray:72.5134048461914px}}@keyframes animate-svg-fill-32{0%{fill:transparent}}@keyframes animate-svg-stroke-33{0%{stroke-dashoffset:61.404170989990234px;stroke-dasharray:61.404170989990234px}}@keyframes animate-svg-fill-33{0%{fill:transparent}}@keyframes animate-svg-stroke-34{0%{stroke-dashoffset:51.46902847290039px;stroke-dasharray:51.46902847290039px}}@keyframes animate-svg-fill-34{0%{fill:transparent}}@keyframes animate-svg-stroke-35{0%{stroke-dashoffset:49.20431900024414px;stroke-dasharray:49.20431900024414px}}@keyframes animate-svg-fill-35{0%{fill:transparent}}@keyframes animate-svg-stroke-36{0%{stroke-dashoffset:67.71304321289062px;stroke-dasharray:67.71304321289062px}}@keyframes animate-svg-fill-36{0%{fill:transparent}}@keyframes animate-svg-stroke-37{0%{stroke-dashoffset:36.91770553588867px;stroke-dasharray:36.91770553588867px}}@keyframes animate-svg-fill-37{0%{fill:transparent}}@keyframes animate-svg-stroke-38{0%{stroke-dashoffset:49.20431900024414px;stroke-dasharray:49.20431900024414px}}@keyframes animate-svg-fill-38{0%{fill:transparent}}@keyframes animate-svg-stroke-39{0%{stroke-dashoffset:51.46905517578125px;stroke-dasharray:51.46905517578125px}}@keyframes animate-svg-fill-39{0%{fill:transparent}}@keyframes animate-svg-stroke-40{0%{stroke-dashoffset:72.43672943115234px;stroke-dasharray:72.43672943115234px}}@keyframes animate-svg-fill-40{0%{fill:transparent}}@keyframes animate-svg-stroke-41{0%{stroke-dashoffset:61.40501403808594px;stroke-dasharray:61.40501403808594px}}@keyframes animate-svg-fill-41{0%{fill:transparent}}@keyframes animate-svg-stroke-42{0%{stroke-dashoffset:36.91770935058594px;stroke-dasharray:36.91770935058594px}}@keyframes animate-svg-fill-42{0%{fill:transparent}}@keyframes animate-svg-stroke-43{0%{stroke-dashoffset:61.404476165771484px;stroke-dasharray:61.404476165771484px}}@keyframes animate-svg-fill-43{0%{fill:transparent}}@keyframes animate-svg-stroke-44{0%{stroke-dashoffset:10.993078231811523px;stroke-dasharray:10.993078231811523px}}@keyframes animate-svg-fill-44{0%{fill:transparent}}@keyframes animate-svg-stroke-45{0%{stroke-dashoffset:26.29998016357422px;stroke-dasharray:26.29998016357422px}}@keyframes animate-svg-fill-45{0%{fill:transparent}}@keyframes animate-svg-stroke-46{0%{stroke-dashoffset:58.32326126098633px;stroke-dasharray:58.32326126098633px}}@keyframes animate-svg-fill-46{0%{fill:transparent}}.st4{stroke:gray;stroke-width:.5}</style><path d="m56.55 6.17-.46.33c-10.94 7.82-17.28 19.57-17.41 32.25-.13 12.68 5.98 24.54 16.76 32.54l.45.33-.2-.53c-3.67-9.76-5.55-20.92-5.44-32.25.12-11.33 2.22-22.45 6.09-32.15l.21-.52z" style="fill:#dc2991;stroke:gray;stroke-width:.5;stroke-miterlimit:10;animation:animate-svg-stroke-1 1s linear 0s both,animate-svg-fill-1 .7s cubic-bezier(.95,.05,.795,.035) .8s both"/><path d="M54.71 72c-6.78-4.43-13.14-10.4-18.38-17.26-5.24-6.86-9.18-14.37-11.4-21.71l-.15-.5-.17.5c-2.92 9.01-1.22 18.58 4.65 26.27 5.87 7.68 15.11 12.42 25.35 13l.62.04-.52-.34z" style="fill:#6a2990;stroke:gray;stroke-width:.5;stroke-miterlimit:10;animation:animate-svg-stroke-2 1s linear .12s both,animate-svg-fill-2 .7s cubic-bezier(.95,.05,.795,.035) .9s both"/><path d="M53.98 73.32c-6.08-.11-12.6-1.32-18.87-3.48-6.25-2.16-12.02-5.2-16.67-8.8L18 60.7l.19.53c2.3 6.55 7.65 11.7 14.67 14.13 2.78.96 5.69 1.45 8.64 1.45 4.41 0 8.75-1.1 12.56-3.18l.55-.3-.63-.01z" style="fill:#0860a8;stroke:gray;stroke-width:.5;stroke-miterlimit:10;animation:animate-svg-stroke-3 1s linear .24s both,animate-svg-fill-3 .7s cubic-bezier(.95,.05,.795,.035) 1s both"/><path d="M54.34 74.71c-3.63 2.3-8 4.12-12.65 5.27-3.73.93-7.46 1.4-11.09 1.4-.92 0-1.84-.03-2.74-.09l-.61-.05.51.35c3.04 2.04 6.77 3.17 10.51 3.17 1.56 0 3.13-.19 4.65-.57 5.25-1.3 9.5-4.68 11.66-9.26l.24-.51-.48.29z" style="fill:#67b2d3;stroke:gray;stroke-width:.5;stroke-miterlimit:10;animation:animate-svg-stroke-4 1s linear .36s both,animate-svg-fill-4 .7s cubic-bezier(.95,.05,.795,.035) 1.1s both"/><path class="st4" d="M78.06 35.72h-5.59c-.12-.62-.18-1.28-.18-1.97 0-.64.06-1.28.18-1.9h15.76c.13.62.19 1.26.19 1.9 0 .69-.06 1.34-.19 1.97h-5.59v18.57c-.37.04-.75.08-1.12.11-.38.03-.74.05-1.09.05-.35 0-.73-.01-1.14-.03-.41-.02-.82-.06-1.24-.12V35.72z" style="animation:animate-svg-stroke-5 1s linear .48s both,animate-svg-fill-5 .7s cubic-bezier(.95,.05,.795,.035) 1.2000000000000002s both"/><path class="st4" d="M88.42 38.16c.31-.06.61-.11.89-.14.28-.03.59-.04.92-.04.31 0 .61.02.92.06.3.04.6.09.89.16.06.11.12.26.17.45.05.2.1.4.14.62.04.22.08.44.11.65.03.22.06.4.08.55.46-.65 1.02-1.22 1.68-1.73.66-.51 1.5-.77 2.5-.77.21 0 .44.01.72.03.27.02.47.05.59.09.04.21.07.45.1.72.02.27.03.55.03.84 0 .35-.01.74-.05 1.15-.03.42-.09.81-.17 1.19a4.42 4.42 0 0 0-.76-.06h-.52c-.35 0-.75.04-1.18.11-.44.07-.85.27-1.25.58-.4.31-.72.78-.98 1.4-.26.63-.39 1.5-.39 2.62v7.68c-.38.06-.75.11-1.12.13a20.385 20.385 0 0 1-2.17 0 9.72 9.72 0 0 1-1.14-.13V38.16z" style="animation:animate-svg-stroke-6 1s linear .6s both,animate-svg-fill-6 .7s cubic-bezier(.95,.05,.795,.035) 1.3s both"/><path class="st4" d="M108.55 43.68c0-.5-.08-.9-.25-1.22-.16-.31-.39-.56-.68-.73-.29-.18-.65-.3-1.08-.36-.43-.06-.9-.1-1.42-.1-1.12 0-2.32.22-3.59.66-.29-.54-.51-1.05-.65-1.53-.15-.48-.22-1.05-.22-1.72.92-.31 1.83-.54 2.75-.69.91-.14 1.77-.22 2.56-.22 2.16 0 3.86.52 5.07 1.56 1.22 1.04 1.83 2.71 1.83 4.99v9.36c-.73.23-1.61.45-2.65.65-1.04.21-2.22.31-3.53.31-1.06 0-2.03-.09-2.92-.28-.88-.19-1.64-.5-2.28-.94-.63-.44-1.12-1-1.46-1.68-.34-.69-.51-1.53-.51-2.53 0-1 .21-1.83.64-2.51.43-.68.98-1.22 1.65-1.62.68-.41 1.43-.7 2.26-.87.83-.18 1.66-.27 2.5-.27.6 0 1.27.03 1.99.09v-.35zm0 3.21c-.25-.04-.52-.08-.81-.11a7.78 7.78 0 0 0-.78-.05c-1.02 0-1.83.18-2.42.55-.59.36-.89.95-.89 1.76 0 .54.11.96.34 1.25.23.29.51.51.83.64.32.14.67.22 1.03.25s.68.05.95.05c.31 0 .63-.03.94-.08.31-.05.58-.1.81-.14v-4.12z" style="animation:animate-svg-stroke-7 1s linear .72s both,animate-svg-fill-7 .7s cubic-bezier(.95,.05,.795,.035) 1.4000000000000001s both"/><path class="st4" d="M114.29 38.19c.5-.11.96-.17 1.39-.19.43-.02.8-.03 1.11-.03.42 0 .83.01 1.25.03.42.02.8.07 1.15.16l3.53 12.02 3.47-12.02c.35-.06.73-.11 1.12-.14.39-.03.79-.04 1.19-.04.31 0 .67.01 1.08.03.4.02.87.08 1.39.19l-6.11 16.1c-.4.06-.81.1-1.25.12-.43.02-.8.03-1.09.03-.31 0-.66-.01-1.06-.03-.4-.02-.77-.07-1.12-.16l-6.05-16.07z" style="animation:animate-svg-stroke-8 1s linear .84s both,animate-svg-fill-8 .7s cubic-bezier(.95,.05,.795,.035) 1.5s both"/><path class="st4" d="M141.19 43.68c0-.5-.09-.9-.25-1.22-.17-.31-.4-.56-.69-.73-.29-.18-.65-.3-1.08-.36-.43-.06-.9-.1-1.42-.1-1.12 0-2.32.22-3.59.66a8.83 8.83 0 0 1-.66-1.53c-.15-.48-.22-1.05-.22-1.72.91-.31 1.83-.54 2.74-.69.91-.14 1.77-.22 2.56-.22 2.16 0 3.85.52 5.07 1.56 1.22 1.04 1.83 2.71 1.83 4.99v9.36c-.73.23-1.61.45-2.65.65-1.04.21-2.22.31-3.53.31-1.06 0-2.03-.09-2.92-.28-.88-.19-1.64-.5-2.28-.94-.63-.44-1.12-1-1.47-1.68-.34-.69-.52-1.53-.52-2.53 0-1 .21-1.83.64-2.51.43-.68.98-1.22 1.65-1.62.68-.41 1.43-.7 2.26-.87.83-.18 1.66-.27 2.49-.27.61 0 1.27.03 2 .09v-.35zm0 3.21c-.25-.04-.52-.08-.81-.11a7.78 7.78 0 0 0-.78-.05c-1.02 0-1.83.18-2.42.55-.6.36-.89.95-.89 1.76 0 .54.11.96.34 1.25.23.29.5.51.83.64.32.14.66.22 1.03.25.36.03.68.05.95.05.31 0 .62-.03.94-.08.31-.05.58-.1.81-.14v-4.12z" style="animation:animate-svg-stroke-9 1s linear .96s both,animate-svg-fill-9 .7s cubic-bezier(.95,.05,.795,.035) 1.6s both"/><path class="st4" d="M149.27 38.16c.29-.06.58-.11.87-.14.29-.03.62-.04.97-.04s.66.01.94.04c.27.03.55.08.84.14.06.1.12.26.17.45.05.2.1.41.14.62.04.22.08.43.11.64.03.21.06.38.08.53.21-.31.46-.62.75-.94.29-.31.63-.59 1.01-.84s.82-.45 1.29-.61c.48-.16 1.01-.23 1.59-.23 1.83 0 3.21.5 4.14 1.5.92 1 1.39 2.57 1.39 4.71v10.3c-.75.12-1.49.19-2.22.19-.73 0-1.47-.06-2.22-.19v-9.11c0-1.13-.17-1.99-.51-2.59-.35-.6-.94-.9-1.79-.9-.35 0-.72.05-1.1.15-.37.11-.71.31-1.01.61-.3.3-.55.72-.74 1.26-.19.54-.28 1.25-.28 2.12v8.46c-.75.12-1.49.19-2.22.19-.73 0-1.47-.06-2.22-.19V38.16z" style="animation:animate-svg-stroke-10 1s linear 1.08s both,animate-svg-fill-10 .7s cubic-bezier(.95,.05,.795,.035) 1.7000000000000002s both"/><path class="st4" d="M178.26 50.48c.25.41.46.9.62 1.45.17.55.25 1.2.25 1.95-.83.33-1.61.55-2.34.64-.73.1-1.49.14-2.28.14-1.35 0-2.52-.22-3.53-.64-1-.43-1.82-1.01-2.48-1.76-.66-.75-1.15-1.64-1.48-2.67-.33-1.03-.5-2.15-.5-3.36 0-1.18.16-2.29.48-3.3.32-1.02.81-1.91 1.47-2.69.65-.77 1.47-1.37 2.45-1.81.98-.44 2.11-.65 3.4-.65.46 0 .88.01 1.26.03.39.02.76.06 1.11.12.36.06.71.15 1.06.25.36.11.75.24 1.19.41 0 .48-.06 1.01-.19 1.61-.12.6-.32 1.16-.59 1.7-.62-.21-1.17-.35-1.64-.42s-1-.11-1.61-.11c-1.29 0-2.26.42-2.92 1.26-.66.84-.98 2.04-.98 3.6 0 1.69.35 2.91 1.06 3.68.71.77 1.67 1.16 2.87 1.16.31 0 .6-.01.86-.02s.51-.04.76-.08.51-.11.77-.19c.27-.07.58-.17.93-.3z" style="animation:animate-svg-stroke-11 1s linear 1.2s both,animate-svg-fill-11 .7s cubic-bezier(.95,.05,.795,.035) 1.8s both"/><path class="st4" d="M188.46 54.66c-1.31 0-2.45-.22-3.42-.64-.97-.43-1.77-1.02-2.41-1.78-.64-.76-1.11-1.65-1.43-2.67-.33-1.02-.48-2.12-.48-3.31 0-1.18.16-2.3.48-3.34.32-1.04.8-1.94 1.43-2.7.64-.76 1.44-1.36 2.41-1.79.97-.44 2.1-.65 3.42-.65 1.31 0 2.46.22 3.43.65.98.44 1.79 1.03 2.43 1.79.65.76 1.12 1.66 1.43 2.7.31 1.04.47 2.15.47 3.34s-.15 2.29-.47 3.31a7.468 7.468 0 0 1-1.43 2.67c-.64.76-1.45 1.35-2.43 1.78-.97.43-2.12.64-3.43.64zm0-3.37c1.16 0 2-.43 2.51-1.3.51-.86.77-2.11.77-3.73s-.26-2.86-.77-3.73c-.51-.86-1.35-1.29-2.51-1.29-1.14 0-1.97.43-2.48 1.29-.51.86-.77 2.11-.77 3.73s.25 2.87.77 3.73c.51.87 1.34 1.3 2.48 1.3z" style="animation:animate-svg-stroke-12 1s linear 1.3199999999999998s both,animate-svg-fill-12 .7s cubic-bezier(.95,.05,.795,.035) 1.9000000000000001s both"/><path class="st4" d="M199.57 38.16c.32-.06.61-.11.89-.14.28-.03.59-.04.92-.04.31 0 .62.02.92.06.3.04.6.09.89.16.07.11.12.26.17.45.05.2.1.4.14.62.04.22.07.44.11.65.03.22.06.4.08.55.46-.65 1.02-1.22 1.69-1.73.67-.51 1.49-.77 2.5-.77.21 0 .45.01.72.03.27.02.47.05.59.09.04.21.07.45.09.72.02.27.03.55.03.84 0 .35-.02.74-.05 1.15-.03.42-.09.81-.17 1.19-.23-.04-.49-.06-.77-.06h-.52c-.35 0-.75.04-1.18.11-.44.07-.86.27-1.25.58-.4.31-.72.78-.98 1.4-.26.63-.39 1.5-.39 2.62v7.68c-.38.06-.75.11-1.12.13a20.385 20.385 0 0 1-2.17 0c-.36-.02-.75-.06-1.14-.13V38.16z" style="animation:animate-svg-stroke-13 1s linear 1.44s both,animate-svg-fill-13 .7s cubic-bezier(.95,.05,.795,.035) 2s both"/><path class="st4" d="M215.02 47.58c.08 1.25.52 2.15 1.31 2.71s1.83.84 3.12.84c.71 0 1.43-.07 2.17-.2s1.44-.33 2.11-.58c.23.42.42.92.59 1.5.16.58.26 1.21.28 1.87-1.63.62-3.46.94-5.49.94-1.5 0-2.78-.21-3.86-.62-1.07-.42-1.94-.99-2.62-1.73a7.024 7.024 0 0 1-1.5-2.64c-.32-1.02-.48-2.13-.48-3.34 0-1.19.17-2.3.5-3.34.33-1.04.83-1.95 1.48-2.72.66-.77 1.47-1.38 2.44-1.83.97-.45 2.09-.67 3.39-.67 1.12 0 2.12.2 3 .59.87.4 1.62.93 2.23 1.62.61.69 1.08 1.5 1.39 2.45.31.95.47 1.96.47 3.04 0 .39-.02.78-.05 1.17-.03.39-.07.69-.11.92h-10.37zm6.34-3.09c-.04-1-.32-1.8-.83-2.42-.51-.61-1.23-.92-2.13-.92-1.05 0-1.83.29-2.37.87-.54.59-.87 1.41-.97 2.47h6.3z" style="animation:animate-svg-stroke-14 1s linear 1.56s both,animate-svg-fill-14 .7s cubic-bezier(.95,.05,.795,.035) 2.1s both"/><path class="st4" d="M73.38 59.05c.13-.02.32-.04.6-.05.27-.01.52-.02.75-.02.23 0 .48.01.75.02s.48.03.63.05L82.38 74l6.21-14.95c.12-.02.33-.04.61-.05.28-.01.53-.02.73-.02s.45.01.72.02c.27.01.48.03.62.05l1.09 22.43c-.14.02-.31.04-.5.05-.19.01-.38.01-.56.01-.21 0-.41 0-.61-.01s-.36-.03-.48-.05l-.84-19.09-6.18 14.44c-.15.05-.29.06-.43.06h-.86c-.14 0-.27-.02-.42-.06l-6.12-14.48-.91 19.13c-.15.02-.31.04-.5.05-.19.01-.37.01-.56.01-.21 0-.41 0-.61-.01s-.36-.03-.48-.05l1.08-22.43z" style="animation:animate-svg-stroke-15 1s linear 1.68s both,animate-svg-fill-15 .7s cubic-bezier(.95,.05,.795,.035) 2.2s both"/><path class="st4" d="M98.31 73.84c0 2.12.49 3.69 1.47 4.68.98 1 2.44 1.5 4.4 1.5.79 0 1.53-.07 2.2-.2.68-.14 1.34-.32 1.98-.55.1.23.18.51.25.84.06.33.1.63.12.9-.6.27-1.31.48-2.12.62-.81.15-1.7.22-2.65.22-1.37 0-2.55-.21-3.54-.61-.99-.41-1.8-.97-2.43-1.7-.64-.73-1.11-1.6-1.41-2.6-.3-1.01-.45-2.12-.45-3.33 0-1.17.14-2.26.42-3.28.28-1.02.71-1.91 1.28-2.68.57-.77 1.31-1.37 2.2-1.81.89-.44 1.97-.66 3.21-.66 1.04 0 1.97.17 2.78.53.81.36 1.49.85 2.04 1.48.55.64.97 1.4 1.25 2.28.28.88.42 1.85.42 2.89 0 .19 0 .43-.02.72-.01.29-.03.54-.05.75H98.31zm9.37-1.72c0-.64-.08-1.28-.25-1.91-.17-.62-.42-1.17-.78-1.64-.35-.47-.81-.85-1.37-1.14-.56-.29-1.24-.44-2.03-.44-1.46 0-2.59.45-3.4 1.34-.81.89-1.3 2.15-1.47 3.78h9.3z" style="animation:animate-svg-stroke-16 1s linear 1.7999999999999998s both,animate-svg-fill-16 .7s cubic-bezier(.95,.05,.795,.035) 2.3s both"/><path class="st4" d="M124.18 58.55c.12-.02.3-.04.53-.05.23-.01.4-.02.5-.02.13 0 .3.01.52.02.22.01.39.03.52.05v22.56c-.64.21-1.45.38-2.4.53-.96.15-1.96.22-2.99.22-1.14 0-2.22-.14-3.21-.41-1-.27-1.86-.72-2.59-1.34-.73-.63-1.31-1.45-1.73-2.47-.43-1.02-.64-2.28-.64-3.78 0-1.37.19-2.6.56-3.67.37-1.07.9-1.98 1.59-2.71.69-.74 1.51-1.31 2.48-1.7.97-.4 2.03-.59 3.2-.59.69 0 1.37.06 2.05.17.67.12 1.22.25 1.64.39v-7.2zm0 9.14c-.42-.16-.95-.31-1.59-.45-.65-.13-1.31-.2-2-.2-.98 0-1.83.17-2.54.5-.72.33-1.32.79-1.8 1.39-.48.59-.84 1.31-1.08 2.14-.24.83-.36 1.75-.36 2.74 0 2.17.52 3.74 1.55 4.73 1.03.98 2.49 1.48 4.39 1.48.68 0 1.34-.04 1.96-.11a9.55 9.55 0 0 0 1.47-.26V67.69z" style="animation:animate-svg-stroke-17 1s linear 1.92s both,animate-svg-fill-17 .7s cubic-bezier(.95,.05,.795,.035) 2.4000000000000004s both"/><path class="st4" d="M131.92 67.32h-2c-.02-.1-.04-.23-.05-.38-.01-.14-.02-.3-.02-.47 0-.17.01-.33.02-.5.01-.16.03-.3.05-.41h4.06v15.91c-.12.02-.3.04-.51.05-.22.01-.39.01-.52.01-.1 0-.27 0-.5-.01-.23-.01-.4-.03-.53-.05V67.32zm-1.03-5.65c-.02-.19-.04-.42-.05-.69-.01-.27-.01-.5-.01-.69 0-.17 0-.38.01-.62.01-.25.03-.46.05-.63.19-.02.42-.04.69-.05.27-.01.5-.02.68-.02.17 0 .37.01.63.02.25.01.46.03.62.05.02.17.04.38.05.63.01.25.02.46.02.62 0 .19-.01.42-.02.69-.01.27-.03.5-.05.69-.17.02-.37.04-.62.05-.25.01-.46.01-.63.01-.19 0-.41 0-.68-.01-.27-.01-.5-.03-.69-.05z" style="animation:animate-svg-stroke-18 1s linear 2.04s both,animate-svg-fill-18 .7s cubic-bezier(.95,.05,.795,.035) 2.5s both"/><path class="st4" d="M149.24 79.49c.11.21.2.49.3.84.09.36.16.65.2.87-.52.19-1.11.34-1.77.47-.67.13-1.41.19-2.22.19-2.6 0-4.57-.71-5.93-2.14-1.35-1.43-2.03-3.49-2.03-6.2 0-1.18.16-2.28.5-3.29.33-1.01.82-1.89 1.47-2.64.65-.75 1.45-1.34 2.42-1.76.97-.43 2.08-.64 3.35-.64.79 0 1.55.06 2.26.17.72.12 1.28.25 1.7.39 0 .27-.04.58-.11.94-.07.35-.15.63-.24.84-.41-.15-.94-.27-1.58-.38-.63-.1-1.31-.15-2.04-.15-.94 0-1.76.16-2.45.48-.7.32-1.28.77-1.75 1.36-.47.58-.82 1.27-1.04 2.06-.23.79-.34 1.67-.34 2.62 0 2.25.53 3.9 1.61 4.95 1.07 1.05 2.52 1.57 4.35 1.57.63 0 1.22-.05 1.79-.15.58-.1 1.09-.23 1.55-.4z" style="animation:animate-svg-stroke-19 1s linear 2.16s both,animate-svg-fill-19 .7s cubic-bezier(.95,.05,.795,.035) 2.6s both"/><path class="st4" d="M153.86 67.32h-2c-.02-.1-.04-.23-.05-.38-.01-.14-.02-.3-.02-.47 0-.17.01-.33.02-.5.01-.16.03-.3.05-.41h4.06v15.91c-.12.02-.3.04-.52.05-.22.01-.39.01-.52.01-.1 0-.27 0-.5-.01-.23-.01-.41-.03-.53-.05V67.32zm-1.03-5.65c-.02-.19-.04-.42-.05-.69-.01-.27-.02-.5-.02-.69 0-.17.01-.38.02-.62.01-.25.03-.46.05-.63.19-.02.42-.04.69-.05.27-.01.5-.02.69-.02.16 0 .37.01.63.02.25.01.45.03.62.05.02.17.03.38.05.63.01.25.01.46.01.62 0 .19 0 .42-.01.69-.01.27-.03.5-.05.69-.17.02-.38.04-.62.05-.25.01-.46.01-.63.01-.19 0-.42 0-.69-.01-.27-.01-.51-.03-.69-.05z" style="animation:animate-svg-stroke-20 1s linear 2.28s both,animate-svg-fill-20 .7s cubic-bezier(.95,.05,.795,.035) 2.7s both"/><path class="st4" d="M161.35 67.32h-2.72c-.02-.1-.04-.24-.04-.41-.01-.16-.02-.33-.02-.5 0-.17 0-.32.02-.47.01-.14.02-.27.04-.38h2.72v-2.99l1.93-1.9h.13v4.9h4.3c.02.11.04.23.05.38.01.15.02.3.02.47 0 .16-.01.33-.02.5-.01.17-.02.3-.05.41h-4.3v10.36c0 .52.06.93.2 1.23.14.3.31.54.53.7.22.17.46.27.75.33.28.05.57.08.86.08.73 0 1.36-.1 1.9-.28.15.54.25 1.12.31 1.74-.75.23-1.62.35-2.62.35-1.19 0-2.15-.32-2.89-.95-.74-.63-1.11-1.67-1.11-3.11V67.32z" style="animation:animate-svg-stroke-21 1s linear 2.4s both,animate-svg-fill-21 .7s cubic-bezier(.95,.05,.795,.035) 2.8s both"/><path class="st4" d="M175.7 81.55h-.6c-.18 0-.4 0-.64-.01s-.42-.03-.55-.05l-5.74-15.91c.12-.02.3-.04.53-.05.23-.01.45-.01.66-.01.17 0 .37 0 .62.01s.44.03.56.05l5.27 15.48 5.18-15.48c.12-.02.29-.04.5-.05.21-.01.4-.01.56-.01.17 0 .35 0 .57.01.21.01.38.03.5.05l-6.99 20.63c-.37 1.15-.91 1.95-1.59 2.41-.68.46-1.5.68-2.43.68-.44 0-.88-.05-1.33-.12-.45-.08-.82-.17-1.11-.25 0-.64.16-1.23.47-1.75.16.06.41.13.75.2.33.07.71.11 1.12.11.6 0 1.09-.14 1.45-.44.37-.29.68-.83.95-1.62l1.29-3.88z" style="animation:animate-svg-stroke-22 1s linear 2.52s both,animate-svg-fill-22 .7s cubic-bezier(.95,.05,.795,.035) 2.9000000000000004s both"/><path class="st4" d="m20.45 119.18 8.54-15.42h1.58l3.04 15.42h-1.9l-.89-4.64h-5.75l-2.55 4.64h-2.07zm5.54-6.34h4.51l-.55-2.96c-.25-1.36-.45-2.48-.58-3.38h-.05c-.41.94-1.02 2.15-1.84 3.64l-1.49 2.7z" style="animation:animate-svg-stroke-23 1s linear 2.6399999999999997s both,animate-svg-fill-23 .7s cubic-bezier(.95,.05,.795,.035) 3s both"/><path class="st4" d="M44.3 109.65c.17-.24.36-.46.56-.67.21-.21.44-.39.69-.54.25-.15.53-.27.84-.36.3-.09.63-.13.98-.13.41 0 .81.07 1.21.21.4.14.76.36 1.07.67.31.31.57.7.76 1.19.19.48.29 1.07.29 1.76 0 .57-.05 1.15-.16 1.76-.1.6-.27 1.19-.48 1.76-.22.57-.49 1.11-.82 1.61-.33.51-.72.95-1.18 1.33-.46.38-.98.68-1.56.9-.58.22-1.23.33-1.94.33-.53 0-1-.08-1.42-.25-.41-.17-.77-.39-1.05-.68-.29-.29-.51-.63-.66-1.03-.15-.4-.22-.83-.22-1.3 0-.2.01-.39.03-.59s.06-.4.1-.62l2.62-12.5h1.79l-1.5 7.16h.05zm-1.14 5.32c-.04.18-.07.37-.1.55-.03.18-.05.37-.05.57 0 .58.15 1.03.46 1.36s.74.5 1.31.5c.46 0 .89-.09 1.27-.28.39-.18.73-.43 1.04-.74.3-.31.57-.66.8-1.07s.42-.84.57-1.29c.15-.45.26-.9.34-1.34.08-.44.12-.86.12-1.26 0-.31-.04-.62-.11-.92-.07-.3-.19-.56-.35-.8-.16-.23-.37-.42-.63-.56-.26-.14-.57-.21-.94-.21-.31 0-.64.07-.97.2-.33.13-.65.33-.96.61-.3.28-.58.63-.82 1.05-.24.42-.42.93-.55 1.51l-.43 2.12z" style="animation:animate-svg-stroke-24 1s linear 2.76s both,animate-svg-fill-24 .7s cubic-bezier(.95,.05,.795,.035) 3.1000000000000005s both"/><path class="st4" d="M61.88 110.78c0 .68-.17 1.26-.51 1.72-.34.46-.83.83-1.47 1.12-.64.28-1.43.49-2.36.63s-1.99.22-3.18.25c-.01.08-.01.17-.02.25 0 .08-.01.18-.01.28 0 1 .25 1.73.75 2.19s1.25.69 2.25.69c.26 0 .53-.02.81-.05.28-.03.56-.08.84-.15.28-.07.54-.14.8-.22.26-.08.49-.18.7-.28l-.32 1.64c-.39.18-.85.33-1.39.45-.53.12-1.11.18-1.73.18-.78 0-1.46-.11-2.02-.32-.56-.21-1.03-.52-1.39-.9-.36-.39-.63-.85-.81-1.38s-.26-1.12-.26-1.76c0-.58.06-1.17.17-1.75.11-.58.29-1.14.51-1.67.23-.53.51-1.02.84-1.48.33-.45.72-.85 1.16-1.18.44-.33.93-.6 1.47-.79.54-.19 1.13-.29 1.76-.29.45 0 .89.06 1.3.17.41.11.77.28 1.09.52.32.23.56.53.75.89.17.34.27.76.27 1.24zm-7.18 2.11c.85 0 1.6-.04 2.27-.13.67-.08 1.23-.21 1.69-.39.46-.17.81-.4 1.06-.67s.37-.61.37-1a1.104 1.104 0 0 0-.41-.87c-.14-.11-.31-.21-.51-.28-.2-.07-.44-.1-.7-.1-.44 0-.85.08-1.25.24-.4.16-.76.39-1.08.69-.33.3-.61.66-.86 1.08a6.4 6.4 0 0 0-.58 1.43z" style="animation:animate-svg-stroke-25 1s linear 2.88s both,animate-svg-fill-25 .7s cubic-bezier(.95,.05,.795,.035) 3.2s both"/><path class="st4" d="M68.81 119.25c-.18.05-.45.1-.8.15-.35.05-.69.07-1.04.07-.97 0-1.67-.19-2.12-.58-.45-.39-.67-.92-.67-1.6 0-.25.04-.57.12-.96l1.36-6.57h-2.12l.32-1.53h2.12l.62-3h1.8l-.62 3h2.89l-.31 1.53h-2.9l-1.28 6.13c-.04.2-.07.37-.09.52-.02.15-.03.29-.03.43 0 .4.11.68.32.83.21.16.57.24 1.08.24.23 0 .5-.02.82-.06.32-.04.6-.09.85-.16l-.32 1.56z" style="animation:animate-svg-stroke-26 1s linear 3s both,animate-svg-fill-26 .7s cubic-bezier(.95,.05,.795,.035) 3.3s both"/><path class="st4" d="M76.87 119.25c-.18.05-.45.1-.8.15-.35.05-.69.07-1.04.07-.97 0-1.67-.19-2.12-.58-.45-.39-.67-.92-.67-1.6 0-.25.04-.57.12-.96l1.36-6.57H71.6l.32-1.53h2.12l.62-3h1.8l-.62 3h2.89l-.31 1.53h-2.9l-1.28 6.13c-.04.2-.07.37-.09.52-.02.15-.03.29-.03.43 0 .4.11.68.32.83.21.16.57.24 1.08.24.23 0 .5-.02.82-.06.32-.04.6-.09.85-.16l-.32 1.56z" style="animation:animate-svg-stroke-27 1s linear 3.12s both,animate-svg-fill-27 .7s cubic-bezier(.95,.05,.795,.035) 3.4000000000000004s both"/><path class="st4" d="M88.75 110.78c0 .68-.17 1.26-.51 1.72-.34.46-.83.83-1.47 1.12-.64.28-1.43.49-2.36.63s-1.99.22-3.18.25c-.01.08-.01.17-.02.25 0 .08-.01.18-.01.28 0 1 .25 1.73.75 2.19.5.46 1.25.69 2.25.69.26 0 .53-.02.81-.05.28-.03.56-.08.84-.15.28-.07.54-.14.8-.22.26-.08.49-.18.7-.28l-.32 1.64c-.39.18-.85.33-1.39.45-.53.12-1.11.18-1.73.18-.78 0-1.46-.11-2.02-.32-.56-.21-1.03-.52-1.39-.9-.36-.39-.63-.85-.81-1.38-.17-.53-.26-1.12-.26-1.76 0-.58.06-1.17.17-1.75.11-.58.29-1.14.51-1.67.23-.53.51-1.02.84-1.48.33-.45.72-.85 1.16-1.18.44-.33.93-.6 1.47-.79.54-.19 1.13-.29 1.76-.29.45 0 .89.06 1.3.17.41.11.77.28 1.09.52.32.23.56.53.75.89.17.34.27.76.27 1.24zm-7.18 2.11c.85 0 1.6-.04 2.27-.13.67-.08 1.23-.21 1.69-.39.46-.17.81-.4 1.06-.67s.37-.61.37-1a1.104 1.104 0 0 0-.41-.87c-.14-.11-.31-.21-.51-.28-.2-.07-.44-.1-.7-.1-.44 0-.85.08-1.25.24-.4.16-.76.39-1.08.69-.33.3-.61.66-.86 1.08a6.4 6.4 0 0 0-.58 1.43z" style="animation:animate-svg-stroke-28 1s linear 3.2399999999999998s both,animate-svg-fill-28 .7s cubic-bezier(.95,.05,.795,.035) 3.5s both"/><path class="st4" d="M97.39 109.76c-.24-.03-.47-.05-.7-.05-.54 0-1.02.09-1.45.27-.43.18-.8.43-1.12.74-.31.31-.57.68-.78 1.09-.2.42-.36.86-.45 1.33l-1.26 6.04h-1.79l2.28-10.95h1.46v1.49h.05c.18-.25.39-.48.61-.69.22-.22.47-.4.75-.56.28-.16.58-.29.9-.38.33-.09.68-.14 1.07-.14.14 0 .27.01.4.02s.26.03.38.05l-.35 1.74z" style="animation:animate-svg-stroke-29 1s linear 3.36s both,animate-svg-fill-29 .7s cubic-bezier(.95,.05,.795,.035) 3.6000000000000005s both"/><path class="st4" d="M105.5 119.25c-.12.03-.28.06-.48.08-.2.02-.4.03-.61.03-.64 0-1.13-.13-1.46-.38-.33-.25-.49-.65-.49-1.2 0-.23.03-.5.09-.81l3.03-14.47h1.79l-2.93 14c-.07.35-.1.6-.1.75 0 .19.05.33.16.42.11.09.29.13.54.13.25 0 .51-.02.76-.07l-.3 1.52z" style="animation:animate-svg-stroke-30 1s linear 3.48s both,animate-svg-fill-30 .7s cubic-bezier(.95,.05,.795,.035) 3.7s both"/><path class="st4" d="m107.72 119.18 2.27-10.95h1.79l-2.27 10.95h-1.79zm2.76-13.49.4-1.97h1.88l-.4 1.97h-1.88z" style="animation:animate-svg-stroke-31 1s linear 3.5999999999999996s both,animate-svg-fill-31 .7s cubic-bezier(.95,.05,.795,.035) 3.8s both"/><path class="st4" d="M115 120.69c-.16.78-.38 1.43-.67 1.95-.28.53-.63.95-1.03 1.27-.4.32-.85.55-1.35.7-.5.14-1.05.21-1.64.21-.35 0-.67-.03-.96-.08-.28-.05-.49-.1-.62-.15l.29-1.52c.18.06.38.11.6.14.22.03.43.05.61.05.45 0 .83-.06 1.16-.17.33-.11.61-.3.86-.56.25-.27.46-.61.64-1.04.18-.43.33-.96.46-1.6l2.12-10.13h-2.02l.32-1.53h2.02l.39-1.9c.29-1.4.83-2.43 1.63-3.11.8-.68 1.76-1.01 2.9-1.01.37 0 .7.03 1.01.08.3.05.54.11.71.17l-.28 1.49a5.625 5.625 0 0 0-1.37-.19c-.77 0-1.38.22-1.85.66-.46.44-.79 1.13-.98 2.06l-.36 1.75h3.01l-.32 1.53h-3.01L115 120.69z" style="animation:animate-svg-stroke-32 1s linear 3.7199999999999998s both,animate-svg-fill-32 .7s cubic-bezier(.95,.05,.795,.035) 3.9000000000000004s both"/><path class="st4" d="M129.85 110.78c0 .68-.17 1.26-.51 1.72-.34.46-.83.83-1.47 1.12-.64.28-1.43.49-2.36.63s-1.99.22-3.18.25c-.01.08-.01.17-.02.25 0 .08-.01.18-.01.28 0 1 .25 1.73.75 2.19.5.46 1.25.69 2.25.69.26 0 .53-.02.81-.05.28-.03.56-.08.84-.15.28-.07.54-.14.8-.22.26-.08.49-.18.7-.28l-.32 1.64c-.39.18-.85.33-1.39.45-.53.12-1.11.18-1.73.18-.78 0-1.46-.11-2.02-.32-.56-.21-1.03-.52-1.39-.9-.36-.39-.63-.85-.81-1.38-.17-.53-.26-1.12-.26-1.76 0-.58.06-1.17.17-1.75.11-.58.29-1.14.51-1.67.23-.53.51-1.02.84-1.48.33-.45.72-.85 1.16-1.18.44-.33.93-.6 1.47-.79.54-.19 1.13-.29 1.76-.29.45 0 .89.06 1.3.17.41.11.77.28 1.09.52.32.23.56.53.75.89.18.34.27.76.27 1.24zm-7.18 2.11c.85 0 1.6-.04 2.27-.13.67-.08 1.23-.21 1.69-.39.46-.17.81-.4 1.06-.67s.37-.61.37-1a1.104 1.104 0 0 0-.41-.87c-.14-.11-.31-.21-.51-.28-.2-.07-.44-.1-.7-.1-.44 0-.85.08-1.25.24-.4.16-.76.39-1.08.69-.33.3-.61.66-.86 1.08a6.4 6.4 0 0 0-.58 1.43z" style="animation:animate-svg-stroke-33 1s linear 3.84s both,animate-svg-fill-33 .7s cubic-bezier(.95,.05,.795,.035) 4s both"/><path class="st4" d="M138.5 111.17c0 .24.05.44.14.62.1.17.22.32.39.45s.35.24.56.33c.21.09.44.18.68.27.33.12.66.24 1 .37.34.13.64.31.92.52.28.21.5.48.68.8.18.32.27.74.27 1.24 0 .61-.11 1.14-.34 1.6s-.54.85-.94 1.16c-.4.31-.88.55-1.44.7-.56.16-1.17.24-1.83.24-.59 0-1.19-.06-1.79-.19-.6-.13-1.08-.29-1.42-.5l.33-1.5c.41.18.85.33 1.33.47.48.14 1 .2 1.55.2.6 0 1.08-.07 1.45-.21.36-.14.65-.31.85-.52.2-.2.34-.42.4-.64.06-.22.1-.42.1-.58 0-.3-.07-.55-.21-.75s-.32-.37-.54-.51a3.82 3.82 0 0 0-.76-.36c-.28-.1-.58-.21-.88-.32-.28-.11-.56-.23-.84-.36a2.7 2.7 0 0 1-.73-.5c-.21-.2-.38-.44-.51-.73s-.2-.64-.2-1.05c0-.59.11-1.1.32-1.54.21-.43.51-.8.87-1.08.36-.29.79-.5 1.26-.64.48-.14.98-.21 1.51-.21.31 0 .63.02.93.06a8.243 8.243 0 0 1 1.69.41c.25.09.47.18.66.28l-.31 1.47c-.46-.2-.94-.37-1.42-.5-.49-.13-.97-.2-1.46-.2-.37 0-.7.04-.98.13s-.52.21-.71.36c-.19.15-.34.33-.44.54s-.14.43-.14.67z" style="animation:animate-svg-stroke-34 1s linear 3.96s both,animate-svg-fill-34 .7s cubic-bezier(.95,.05,.795,.035) 4.1000000000000005s both"/><path class="st4" d="M150.91 119.25c-.18.05-.45.1-.8.15-.35.05-.69.07-1.04.07-.97 0-1.67-.19-2.12-.58-.45-.39-.67-.92-.67-1.6 0-.25.04-.57.12-.96l1.36-6.57h-2.12l.32-1.53h2.12l.62-3h1.8l-.62 3h2.89l-.31 1.53h-2.9l-1.28 6.13c-.04.2-.07.37-.09.52-.02.15-.03.29-.03.43 0 .4.11.68.32.83.21.16.57.24 1.08.24.23 0 .5-.02.82-.06.32-.04.6-.09.85-.16l-.32 1.56z" style="animation:animate-svg-stroke-35 1s linear 4.08s both,animate-svg-fill-35 .7s cubic-bezier(.95,.05,.795,.035) 4.2s both"/><path class="st4" d="M159.98 117.38c-.26.38-.54.71-.84.97s-.6.48-.91.64c-.31.17-.61.28-.92.36-.3.07-.59.11-.87.11a3 3 0 0 1-1.27-.26c-.37-.17-.68-.42-.93-.74s-.45-.71-.58-1.16c-.13-.45-.2-.96-.2-1.51a10.734 10.734 0 0 1 .64-3.68c.21-.58.47-1.13.79-1.63.31-.5.68-.94 1.08-1.32.41-.38.86-.67 1.36-.89.5-.22 1.04-.32 1.64-.32.58 0 1.1.12 1.54.36.45.24.79.58 1.03 1.02h.05l.53-1.09h1.45l-1.76 8.42c-.05.29-.08.51-.08.66 0 .18.05.32.16.4.1.08.29.13.55.13.22 0 .47-.02.76-.07l-.31 1.47c-.32.07-.68.1-1.07.1-.64 0-1.1-.15-1.38-.45-.28-.3-.42-.81-.4-1.52h-.06zm1.29-6.69c-.1-.14-.22-.28-.35-.43s-.29-.28-.47-.4-.37-.21-.59-.29-.47-.11-.74-.11c-.45 0-.86.1-1.23.3-.37.2-.7.46-.98.79s-.53.7-.74 1.12c-.21.42-.38.86-.51 1.31-.13.45-.23.89-.3 1.33-.07.44-.1.84-.1 1.2 0 .48.04.88.13 1.2.09.31.21.56.36.74.15.18.33.31.53.38s.41.11.62.11c.38 0 .76-.1 1.15-.29.39-.2.75-.48 1.09-.85.34-.37.64-.83.91-1.37.27-.54.48-1.16.62-1.85l.6-2.89z" style="animation:animate-svg-stroke-36 1s linear 4.2s both,animate-svg-fill-36 .7s cubic-bezier(.95,.05,.795,.035) 4.3s both"/><path class="st4" d="M172.62 109.76c-.24-.03-.47-.05-.7-.05-.54 0-1.02.09-1.45.27-.43.18-.8.43-1.12.74-.31.31-.57.68-.78 1.09-.2.42-.36.86-.45 1.33l-1.26 6.04h-1.79l2.28-10.95h1.46v1.49h.05c.18-.25.39-.48.61-.69.22-.22.47-.4.75-.56.28-.16.58-.29.9-.38.33-.09.68-.14 1.07-.14.14 0 .27.01.4.02s.26.03.38.05l-.35 1.74z" style="animation:animate-svg-stroke-37 1s linear 4.32s both,animate-svg-fill-37 .7s cubic-bezier(.95,.05,.795,.035) 4.4s both"/><path class="st4" d="M178.42 119.25c-.18.05-.45.1-.8.15-.35.05-.69.07-1.04.07-.97 0-1.67-.19-2.12-.58-.45-.39-.67-.92-.67-1.6 0-.25.04-.57.12-.96l1.36-6.57h-2.12l.32-1.53h2.12l.62-3h1.8l-.62 3h2.89l-.31 1.53h-2.9l-1.28 6.13c-.04.2-.07.37-.09.52-.02.15-.03.29-.03.43 0 .4.11.68.32.83.21.16.57.24 1.08.24.23 0 .5-.02.82-.06.32-.04.6-.09.85-.16l-.32 1.56z" style="animation:animate-svg-stroke-38 1s linear 4.4399999999999995s both,animate-svg-fill-38 .7s cubic-bezier(.95,.05,.795,.035) 4.5s both"/><path class="st4" d="M183.46 111.17c0 .24.05.44.14.62.1.17.22.32.39.45s.35.24.56.33c.21.09.44.18.68.27.33.12.66.24 1 .37.34.13.64.31.92.52.28.21.5.48.68.8.18.32.27.74.27 1.24 0 .61-.11 1.14-.34 1.6s-.54.85-.94 1.16c-.4.31-.88.55-1.44.7-.56.16-1.17.24-1.83.24-.59 0-1.19-.06-1.79-.19-.6-.13-1.08-.29-1.42-.5l.33-1.5c.41.18.85.33 1.33.47.48.14 1 .2 1.55.2.6 0 1.08-.07 1.45-.21.36-.14.65-.31.85-.52.2-.2.34-.42.4-.64.06-.22.1-.42.1-.58 0-.3-.07-.55-.21-.75s-.32-.37-.54-.51a3.82 3.82 0 0 0-.76-.36c-.28-.1-.58-.21-.88-.32-.28-.11-.56-.23-.84-.36a2.7 2.7 0 0 1-.73-.5c-.21-.2-.38-.44-.51-.73s-.2-.64-.2-1.05c0-.59.11-1.1.32-1.54.21-.43.51-.8.87-1.08.36-.29.79-.5 1.26-.64.48-.14.98-.21 1.51-.21.31 0 .63.02.93.06a8.243 8.243 0 0 1 1.69.41c.25.09.47.18.66.28l-.31 1.47c-.46-.2-.94-.37-1.42-.5-.49-.13-.97-.2-1.46-.2-.37 0-.7.04-.98.13s-.52.21-.71.36c-.19.15-.34.33-.44.54s-.14.43-.14.67z" style="animation:animate-svg-stroke-39 1s linear 4.56s both,animate-svg-fill-39 .7s cubic-bezier(.95,.05,.795,.035) 4.6000000000000005s both"/><path class="st4" d="M198.66 109.72c.47-.55 1.02-.99 1.64-1.3.63-.31 1.32-.47 2.07-.47.45 0 .87.06 1.24.18.38.12.7.29.96.51.27.22.47.5.62.83.15.33.22.71.22 1.13 0 .3-.02.62-.08.96-.05.34-.11.68-.19 1.04l-1.37 6.59h-1.79l1.39-6.74c.08-.39.14-.7.16-.93.02-.23.03-.4.03-.51 0-.28-.04-.51-.13-.71-.08-.2-.2-.35-.34-.47s-.32-.21-.52-.27c-.2-.06-.42-.09-.66-.09-.52 0-.99.09-1.44.28-.45.19-.84.45-1.19.78s-.64.72-.88 1.16c-.24.45-.41.93-.52 1.45l-1.26 6.04h-1.79l3.47-16.68h1.79l-1.51 7.23h.08z" style="animation:animate-svg-stroke-40 1s linear 4.68s both,animate-svg-fill-40 .7s cubic-bezier(.95,.05,.795,.035) 4.7s both"/><path class="st4" d="M216.75 110.78c0 .68-.17 1.26-.51 1.72-.34.46-.83.83-1.47 1.12-.64.28-1.43.49-2.36.63s-1.99.22-3.18.25c-.01.08-.01.17-.02.25 0 .08-.01.18-.01.28 0 1 .25 1.73.75 2.19.5.46 1.25.69 2.25.69.26 0 .53-.02.81-.05.28-.03.56-.08.84-.15.28-.07.54-.14.8-.22.26-.08.49-.18.7-.28l-.32 1.64c-.39.18-.85.33-1.39.45-.53.12-1.11.18-1.73.18-.78 0-1.46-.11-2.02-.32-.56-.21-1.03-.52-1.39-.9-.36-.39-.63-.85-.81-1.38s-.26-1.12-.26-1.76c0-.58.06-1.17.17-1.75.11-.58.29-1.14.51-1.67.23-.53.51-1.02.84-1.48.33-.45.72-.85 1.16-1.18.44-.33.93-.6 1.47-.79.54-.19 1.13-.29 1.76-.29.45 0 .89.06 1.3.17.41.11.77.28 1.09.52.32.23.56.53.75.89.18.34.27.76.27 1.24zm-7.18 2.11c.85 0 1.6-.04 2.27-.13.67-.08 1.23-.21 1.69-.39.46-.17.81-.4 1.06-.67s.37-.61.37-1a1.104 1.104 0 0 0-.41-.87c-.14-.11-.31-.21-.51-.28-.2-.07-.44-.1-.7-.1-.44 0-.85.08-1.25.24-.4.16-.76.39-1.08.69-.33.3-.61.66-.86 1.08a6.4 6.4 0 0 0-.58 1.43z" style="animation:animate-svg-stroke-41 1s linear 4.8s both,animate-svg-fill-41 .7s cubic-bezier(.95,.05,.795,.035) 4.8s both"/><path class="st4" d="M225.39 109.76c-.24-.03-.47-.05-.7-.05-.54 0-1.02.09-1.45.27-.43.18-.8.43-1.12.74-.31.31-.57.68-.78 1.09-.2.42-.36.86-.45 1.33l-1.26 6.04h-1.79l2.28-10.95h1.46v1.49h.05c.18-.25.39-.48.61-.69.22-.22.47-.4.75-.56.28-.16.58-.29.9-.38.33-.09.68-.14 1.07-.14.14 0 .27.01.4.02s.26.03.38.05l-.35 1.74z" style="animation:animate-svg-stroke-42 1s linear 4.92s both,animate-svg-fill-42 .7s cubic-bezier(.95,.05,.795,.035) 4.9s both"/><path class="st4" d="M235.01 110.78c0 .68-.17 1.26-.51 1.72-.34.46-.83.83-1.47 1.12-.64.28-1.43.49-2.36.63s-1.99.22-3.18.25c-.01.08-.01.17-.02.25 0 .08-.01.18-.01.28 0 1 .25 1.73.75 2.19.5.46 1.25.69 2.25.69.26 0 .53-.02.81-.05.28-.03.56-.08.84-.15.28-.07.54-.14.8-.22.26-.08.49-.18.7-.28l-.32 1.64c-.39.18-.85.33-1.39.45-.53.12-1.11.18-1.73.18-.78 0-1.46-.11-2.02-.32-.56-.21-1.03-.52-1.39-.9-.36-.39-.63-.85-.81-1.38s-.26-1.12-.26-1.76c0-.58.06-1.17.17-1.75.11-.58.29-1.14.51-1.67.23-.53.51-1.02.84-1.48.33-.45.72-.85 1.16-1.18.44-.33.93-.6 1.47-.79.54-.19 1.13-.29 1.76-.29.45 0 .89.06 1.3.17.41.11.77.28 1.09.52.32.23.56.53.75.89.18.34.27.76.27 1.24zm-7.18 2.11c.85 0 1.6-.04 2.27-.13.67-.08 1.23-.21 1.69-.39.46-.17.81-.4 1.06-.67s.37-.61.37-1a1.104 1.104 0 0 0-.41-.87c-.14-.11-.31-.21-.51-.28-.2-.07-.44-.1-.7-.1-.44 0-.85.08-1.25.24-.4.16-.76.39-1.08.69-.33.3-.61.66-.86 1.08-.24.45-.44.92-.58 1.43z" style="animation:animate-svg-stroke-43 1s linear 5.04s both,animate-svg-fill-43 .7s cubic-bezier(.95,.05,.795,.035) 5s both"/><path class="st4" d="m236.34 119.18.46-2.25h2.2l-.46 2.25h-2.2z" style="animation:animate-svg-stroke-44 1s linear 5.16s both,animate-svg-fill-44 .7s cubic-bezier(.95,.05,.795,.035) 5.1s both"/><path class="st4" d="M228.89 37.97h-.81v-6.22h-2.2v-.72h5.2v.72h-2.2v6.22z" style="animation:animate-svg-stroke-45 1s linear 5.279999999999999s both,animate-svg-fill-45 .7s cubic-bezier(.95,.05,.795,.035) 5.2s both"/><path class="st4" d="m235.2 37.97-2.35-6.15h-.04c.04.49.07 1.07.07 1.74v4.41h-.74v-6.93h1.21l2.2 5.72h.04l2.22-5.72h1.2v6.93h-.81V33.5c0-.51.02-1.07.07-1.67h-.04l-2.37 6.14h-.66z" style="animation:animate-svg-stroke-46 1s linear 5.3999999999999995s both,animate-svg-fill-46 .7s cubic-bezier(.95,.05,.795,.035) 5.3s both"/></svg>